<?xml version="1.0" encoding="UTF-8" standalone="no"?>
<!-- Created with Inkscape (http://www.inkscape.org/) -->
<svg
   xmlns:dc="http://purl.org/dc/elements/1.1/"
   xmlns:cc="http://web.resource.org/cc/"
   xmlns:rdf="http://www.w3.org/1999/02/22-rdf-syntax-ns#"
   xmlns:svg="http://www.w3.org/2000/svg"
   xmlns="http://www.w3.org/2000/svg"
   xmlns:xlink="http://www.w3.org/1999/xlink"
   xmlns:sodipodi="http://sodipodi.sourceforge.net/DTD/sodipodi-0.dtd"
   xmlns:inkscape="http://www.inkscape.org/namespaces/inkscape"
   width="22"
   height="22"
   id="svg4718"
   sodipodi:version="0.32"
   inkscape:version="0.45+devel"
   version="1.0"
   sodipodi:docname="film-roll.svg"
   inkscape:output_extension="org.inkscape.output.svg.inkscape">
  <defs
     id="defs4720">
    <linearGradient
       inkscape:collect="always"
       id="linearGradient5501">
      <stop
         style="stop-color:#000000;stop-opacity:1;"
         offset="0"
         id="stop5503" />
      <stop
         style="stop-color:#000000;stop-opacity:0;"
         offset="1"
         id="stop5505" />
    </linearGradient>
    <linearGradient
       id="linearGradient5491">
      <stop
         style="stop-color:#c7c8c5;stop-opacity:1;"
         offset="0"
         id="stop5493" />
      <stop
         style="stop-color:#888a85;stop-opacity:1;"
         offset="1"
         id="stop5495" />
    </linearGradient>
    <linearGradient
       id="linearGradient5483">
      <stop
         style="stop-color:#eeeeec;stop-opacity:1;"
         offset="0"
         id="stop5485" />
      <stop
         style="stop-color:#ffffff;stop-opacity:1;"
         offset="1"
         id="stop5487" />
    </linearGradient>
    <linearGradient
       inkscape:collect="always"
       id="linearGradient5438">
      <stop
         style="stop-color:#ffffff;stop-opacity:1;"
         offset="0"
         id="stop5440" />
      <stop
         style="stop-color:#ffffff;stop-opacity:0;"
         offset="1"
         id="stop5442" />
    </linearGradient>
    <linearGradient
       inkscape:collect="always"
       id="linearGradient5428">
      <stop
         style="stop-color:#ffffff;stop-opacity:1;"
         offset="0"
         id="stop5430" />
      <stop
         style="stop-color:#ffffff;stop-opacity:0;"
         offset="1"
         id="stop5432" />
    </linearGradient>
    <linearGradient
       inkscape:collect="always"
       id="linearGradient5418">
      <stop
         style="stop-color:#888a85;stop-opacity:1;"
         offset="0"
         id="stop5420" />
      <stop
         style="stop-color:#888a85;stop-opacity:0;"
         offset="1"
         id="stop5422" />
    </linearGradient>
    <linearGradient
       id="linearGradient5400">
      <stop
         style="stop-color:#2e3436;stop-opacity:1;"
         offset="0"
         id="stop5402" />
      <stop
         style="stop-color:#c4cacd;stop-opacity:1;"
         offset="1"
         id="stop5404" />
    </linearGradient>
    <linearGradient
       id="linearGradient5388">
      <stop
         style="stop-color:#c4a000;stop-opacity:1;"
         offset="0"
         id="stop5390" />
      <stop
         id="stop5396"
         offset="0.26678815"
         style="stop-color:#edd400;stop-opacity:1" />
      <stop
         style="stop-color:#c4a000;stop-opacity:1"
         offset="0.71143502"
         id="stop5398" />
      <stop
         style="stop-color:#edd400;stop-opacity:1"
         offset="1"
         id="stop5392" />
    </linearGradient>
    <linearGradient
       inkscape:collect="always"
       xlink:href="#linearGradient5388"
       id="linearGradient5394"
       x1="-4e-08"
       y1="12.802091"
       x2="14.056097"
       y2="12.802091"
       gradientUnits="userSpaceOnUse" />
    <linearGradient
       inkscape:collect="always"
       xlink:href="#linearGradient5418"
       id="linearGradient5424"
       x1="3.2466846"
       y1="5.71875"
       x2="8.8783154"
       y2="5.71875"
       gradientUnits="userSpaceOnUse" />
    <radialGradient
       inkscape:collect="always"
       xlink:href="#linearGradient5428"
       id="radialGradient5434"
       cx="1.7496996"
       cy="16.990303"
       fx="1.7496996"
       fy="16.990303"
       r="4.6878002"
       gradientTransform="matrix(2.4568604,0,0,3.0164759,-2.549068,-33.495269)"
       gradientUnits="userSpaceOnUse" />
    <radialGradient
       inkscape:collect="always"
       xlink:href="#linearGradient5438"
       id="radialGradient5444"
       cx="5.8025656"
       cy="8.1790981"
       fx="5.8025656"
       fy="8.1790981"
       r="6.0894715"
       gradientTransform="matrix(2.3208601,0,0,1.0178301,-9.270098,-0.1143034)"
       gradientUnits="userSpaceOnUse" />
    <linearGradient
       inkscape:collect="always"
       xlink:href="#linearGradient5483"
       id="linearGradient5489"
       x1="-0.01386409"
       y1="13.470524"
       x2="4.831029"
       y2="13.470524"
       gradientUnits="userSpaceOnUse" />
    <linearGradient
       inkscape:collect="always"
       xlink:href="#linearGradient5491"
       id="linearGradient5497"
       x1="-0.01386409"
       y1="13.470524"
       x2="4.831029"
       y2="13.470524"
       gradientUnits="userSpaceOnUse" />
    <radialGradient
       inkscape:collect="always"
       xlink:href="#linearGradient5501"
       id="radialGradient5507"
       cx="7.1875"
       cy="18.5"
       fx="7.1875"
       fy="18.5"
       r="7.0625"
       gradientTransform="matrix(1,0,0,0.3893805,0,11.29646)"
       gradientUnits="userSpaceOnUse" />
  </defs>
  <sodipodi:namedview
     id="base"
     pagecolor="#ffffff"
     bordercolor="#e5e5e5"
     borderopacity="1"
     gridtolerance="10000"
     guidetolerance="10"
     objecttolerance="10"
     inkscape:pageopacity="0.0"
     inkscape:pageshadow="2"
     inkscape:zoom="1"
     inkscape:cx="24.503846"
     inkscape:cy="12.22729"
     inkscape:document-units="px"
     inkscape:current-layer="layer1"
     width="22px"
     height="22px"
     borderlayer="true"
     inkscape:showpageshadow="false"
     inkscape:window-width="641"
     inkscape:window-height="626"
     inkscape:window-x="684"
     inkscape:window-y="149">
    <inkscape:grid
       type="xygrid"
       id="grid4728" />
  </sodipodi:namedview>
  <metadata
     id="metadata4723">
    <rdf:RDF>
      <cc:Work
         rdf:about="">
        <dc:format>image/svg+xml</dc:format>
        <dc:type
           rdf:resource="http://purl.org/dc/dcmitype/StillImage" />
      </cc:Work>
    </rdf:RDF>
  </metadata>
  <g
     inkscape:label="Layer 1"
     inkscape:groupmode="layer"
     id="layer1">
    <path
       sodipodi:type="arc"
       style="opacity:1;color:#000000;fill:url(#radialGradient5507);fill-opacity:1;fill-rule:nonzero;stroke:none;stroke-width:1;stroke-linecap:butt;stroke-linejoin:miter;marker:none;marker-start:none;marker-mid:none;marker-end:none;stroke-miterlimit:4;stroke-dasharray:none;stroke-dashoffset:0;stroke-opacity:1;visibility:visible;display:inline;overflow:visible;enable-background:accumulate"
       id="path5499"
       sodipodi:cx="7.1875"
       sodipodi:cy="18.5"
       sodipodi:rx="7.0625"
       sodipodi:ry="2.75"
       d="M 14.25,18.5 A 7.0625,2.75 0 1 1 0.125,18.5 A 7.0625,2.75 0 1 1 14.25,18.5 z"
       transform="matrix(1,0,0,1.3863636,-0.375,-8.3352273)" />
    <path
       style="opacity:0.80120479000000000;color:#000000;fill:#555753;fill-opacity:1;fill-rule:nonzero;stroke:#000000;stroke-width:1;stroke-linecap:butt;stroke-linejoin:miter;marker:none;marker-start:none;marker-mid:none;marker-end:none;stroke-miterlimit:4;stroke-dasharray:none;stroke-dashoffset:0;stroke-opacity:1;visibility:visible;display:inline;overflow:visible;enable-background:accumulate"
       d="M 21.625,4.5000001 L 21.5625,8.6391132 C 21.5625,8.6391132 20.265625,8.7379032 18.6875,10.625 C 17.109375,12.512097 17.5,16.500001 17.5,16.500001 L 3.375,16.500001 L 3.375,4.5645163 L 21.625,4.5000001 z"
       id="path4726"
       sodipodi:nodetypes="ccscccc" />
    <g
       id="g5339">
      <rect
         y="6"
         x="19"
         height="1"
         width="1"
         id="rect4730"
         style="opacity:0.80120479;color:#000000;fill:#000000;fill-opacity:1;fill-rule:nonzero;stroke:none;stroke-width:1;stroke-linecap:butt;stroke-linejoin:miter;marker:none;marker-start:none;marker-mid:none;marker-end:none;stroke-miterlimit:4;stroke-dasharray:none;stroke-dashoffset:0;stroke-opacity:1;visibility:visible;display:inline;overflow:visible;enable-background:accumulate" />
      <rect
         style="opacity:0.80120479;color:#000000;fill:#000000;fill-opacity:1;fill-rule:nonzero;stroke:none;stroke-width:1;stroke-linecap:butt;stroke-linejoin:miter;marker:none;marker-start:none;marker-mid:none;marker-end:none;stroke-miterlimit:4;stroke-dasharray:none;stroke-dashoffset:0;stroke-opacity:1;visibility:visible;display:inline;overflow:visible;enable-background:accumulate"
         id="rect5309"
         width="1"
         height="1"
         x="17"
         y="6" />
      <rect
         y="6"
         x="15"
         height="1"
         width="1"
         id="rect5311"
         style="opacity:0.80120479;color:#000000;fill:#000000;fill-opacity:1;fill-rule:nonzero;stroke:none;stroke-width:1;stroke-linecap:butt;stroke-linejoin:miter;marker:none;marker-start:none;marker-mid:none;marker-end:none;stroke-miterlimit:4;stroke-dasharray:none;stroke-dashoffset:0;stroke-opacity:1;visibility:visible;display:inline;overflow:visible;enable-background:accumulate" />
      <rect
         style="opacity:0.80120479;color:#000000;fill:#000000;fill-opacity:1;fill-rule:nonzero;stroke:none;stroke-width:1;stroke-linecap:butt;stroke-linejoin:miter;marker:none;marker-start:none;marker-mid:none;marker-end:none;stroke-miterlimit:4;stroke-dasharray:none;stroke-dashoffset:0;stroke-opacity:1;visibility:visible;display:inline;overflow:visible;enable-background:accumulate"
         id="rect5313"
         width="1"
         height="1"
         x="13"
         y="6" />
      <rect
         y="6"
         x="11"
         height="1"
         width="1"
         id="rect5315"
         style="opacity:0.80120479;color:#000000;fill:#000000;fill-opacity:1;fill-rule:nonzero;stroke:none;stroke-width:1;stroke-linecap:butt;stroke-linejoin:miter;marker:none;marker-start:none;marker-mid:none;marker-end:none;stroke-miterlimit:4;stroke-dasharray:none;stroke-dashoffset:0;stroke-opacity:1;visibility:visible;display:inline;overflow:visible;enable-background:accumulate" />
      <rect
         style="opacity:0.80120479;color:#000000;fill:#000000;fill-opacity:1;fill-rule:nonzero;stroke:none;stroke-width:1;stroke-linecap:butt;stroke-linejoin:miter;marker:none;marker-start:none;marker-mid:none;marker-end:none;stroke-miterlimit:4;stroke-dasharray:none;stroke-dashoffset:0;stroke-opacity:1;visibility:visible;display:inline;overflow:visible;enable-background:accumulate"
         id="rect5317"
         width="1"
         height="1"
         x="9"
         y="6" />
      <rect
         y="6"
         x="7"
         height="1"
         width="1"
         id="rect5319"
         style="opacity:0.80120479;color:#000000;fill:#000000;fill-opacity:1;fill-rule:nonzero;stroke:none;stroke-width:1;stroke-linecap:butt;stroke-linejoin:miter;marker:none;marker-start:none;marker-mid:none;marker-end:none;stroke-miterlimit:4;stroke-dasharray:none;stroke-dashoffset:0;stroke-opacity:1;visibility:visible;display:inline;overflow:visible;enable-background:accumulate" />
      <rect
         style="opacity:0.80120479;color:#000000;fill:#000000;fill-opacity:1;fill-rule:nonzero;stroke:none;stroke-width:1;stroke-linecap:butt;stroke-linejoin:miter;marker:none;marker-start:none;marker-mid:none;marker-end:none;stroke-miterlimit:4;stroke-dasharray:none;stroke-dashoffset:0;stroke-opacity:1;visibility:visible;display:inline;overflow:visible;enable-background:accumulate"
         id="rect5321"
         width="1"
         height="1"
         x="5"
         y="6" />
      <rect
         y="14"
         x="13"
         height="1"
         width="1"
         id="rect5329"
         style="opacity:0.80120479;color:#000000;fill:#000000;fill-opacity:1;fill-rule:nonzero;stroke:none;stroke-width:1;stroke-linecap:butt;stroke-linejoin:miter;marker:none;marker-start:none;marker-mid:none;marker-end:none;stroke-miterlimit:4;stroke-dasharray:none;stroke-dashoffset:0;stroke-opacity:1;visibility:visible;display:inline;overflow:visible;enable-background:accumulate" />
      <rect
         style="opacity:0.80120479;color:#000000;fill:#000000;fill-opacity:1;fill-rule:nonzero;stroke:none;stroke-width:1;stroke-linecap:butt;stroke-linejoin:miter;marker:none;marker-start:none;marker-mid:none;marker-end:none;stroke-miterlimit:4;stroke-dasharray:none;stroke-dashoffset:0;stroke-opacity:1;visibility:visible;display:inline;overflow:visible;enable-background:accumulate"
         id="rect5331"
         width="1"
         height="1"
         x="11"
         y="14" />
      <rect
         y="14"
         x="9"
         height="1"
         width="1"
         id="rect5333"
         style="opacity:0.80120479;color:#000000;fill:#000000;fill-opacity:1;fill-rule:nonzero;stroke:none;stroke-width:1;stroke-linecap:butt;stroke-linejoin:miter;marker:none;marker-start:none;marker-mid:none;marker-end:none;stroke-miterlimit:4;stroke-dasharray:none;stroke-dashoffset:0;stroke-opacity:1;visibility:visible;display:inline;overflow:visible;enable-background:accumulate" />
      <rect
         style="opacity:0.80120479;color:#000000;fill:#000000;fill-opacity:1;fill-rule:nonzero;stroke:none;stroke-width:1;stroke-linecap:butt;stroke-linejoin:miter;marker:none;marker-start:none;marker-mid:none;marker-end:none;stroke-miterlimit:4;stroke-dasharray:none;stroke-dashoffset:0;stroke-opacity:1;visibility:visible;display:inline;overflow:visible;enable-background:accumulate"
         id="rect5335"
         width="1"
         height="1"
         x="7"
         y="14" />
      <rect
         y="14"
         x="5"
         height="1"
         width="1"
         id="rect5337"
         style="opacity:0.80120479;color:#000000;fill:#000000;fill-opacity:1;fill-rule:nonzero;stroke:none;stroke-width:1;stroke-linecap:butt;stroke-linejoin:miter;marker:none;marker-start:none;marker-mid:none;marker-end:none;stroke-miterlimit:4;stroke-dasharray:none;stroke-dashoffset:0;stroke-opacity:1;visibility:visible;display:inline;overflow:visible;enable-background:accumulate" />
    </g>
    <path
       style="opacity:1;color:#000000;fill:url(#linearGradient5394);fill-opacity:1;fill-rule:nonzero;stroke:#6f5c00;stroke-width:1;stroke-linecap:butt;stroke-linejoin:miter;marker:none;marker-start:none;marker-mid:none;marker-end:none;stroke-miterlimit:4;stroke-dasharray:none;stroke-dashoffset:0;stroke-opacity:1;visibility:visible;display:inline;overflow:visible;enable-background:accumulate"
       d="M 0.49999996,5.8125 L 0.49999996,17.4375 C 1.451738,20.371881 9.3510375,20.543306 10.453658,18.0625 L 13.5,17.5 L 13.556097,6.3125 L 10.259756,6.625 C 8.9834252,9.3266726 0.79099383,8.6324395 0.49999996,5.8125 z"
       id="path5379"
       sodipodi:nodetypes="ccccccc" />
    <path
       style="opacity:1;color:#000000;fill:#555753;fill-opacity:1;fill-rule:nonzero;stroke:#2e3436;stroke-width:0.99999994000000003;stroke-linecap:butt;stroke-linejoin:miter;marker:none;marker-start:none;marker-mid:none;marker-end:none;stroke-miterlimit:4;stroke-dasharray:none;stroke-dashoffset:0;stroke-opacity:1;visibility:visible;display:inline;overflow:visible;enable-background:accumulate"
       d="M 5.5318925,3.4375002 C 2.7542879,3.4375002 0.49999999,4.5715002 0.49999999,5.9687503 C 0.49999999,7.3660003 2.7542879,8.5000004 5.5318925,8.5000004 C 7.7272685,8.5000004 9.1909733,8.0387163 9.877826,7.0518199 L 13.503767,6.6352851 L 13.536457,3.535997 L 6.6061168,3.5015824 L 6.5495787,3.5015824 C 6.2221126,3.4678456 5.8790931,3.4375002 5.5318925,3.4375002 z"
       id="path5354"
       sodipodi:nodetypes="csscccccc" />
    <path
       sodipodi:nodetypes="csscccccc"
       id="path5436"
       d="M 5.7436747,4.2401096 C 3.3618402,4.2401096 1.4287569,5.2125304 1.4287569,6.4106917 C 1.4287569,7.608853 3.3618402,8.5812739 5.7436747,8.5812739 C 7.6262401,8.5812739 9.2029551,7.9713379 9.7919408,7.1250605 L 12.579668,6.7678761 L 12.6077,4.324572 L 6.664837,4.295061 L 6.6163548,4.295061 C 6.335548,4.2661312 6.0414041,4.2401096 5.7436747,4.2401096 z"
       style="opacity:1;color:#000000;fill:none;fill-opacity:1;fill-rule:nonzero;stroke:url(#radialGradient5444);stroke-width:0.99999994000000003;stroke-linecap:butt;stroke-linejoin:miter;marker:none;marker-start:none;marker-mid:none;marker-end:none;stroke-miterlimit:4;stroke-dasharray:none;stroke-dashoffset:0;stroke-opacity:1;visibility:visible;display:inline;overflow:visible;enable-background:accumulate" />
    <path
       transform="matrix(0.8421052,0,0,1.2222222,0.3947373,-1.7499998)"
       d="M 8.4375,5.71875 A 2.375,1.03125 0 1 1 3.6875,5.71875 A 2.375,1.03125 0 1 1 8.4375,5.71875 z"
       sodipodi:ry="1.03125"
       sodipodi:rx="2.375"
       sodipodi:cy="5.71875"
       sodipodi:cx="6.0625"
       id="path5386"
       style="opacity:1;color:#000000;fill:#888a85;fill-opacity:1;fill-rule:nonzero;stroke:#2e3436;stroke-width:0.98569316;stroke-linecap:butt;stroke-linejoin:miter;marker:none;marker-start:none;marker-mid:none;marker-end:none;stroke-miterlimit:4;stroke-dasharray:none;stroke-dashoffset:0;stroke-opacity:1;visibility:visible;display:inline;overflow:visible;enable-background:accumulate"
       sodipodi:type="arc" />
    <path
       sodipodi:type="arc"
       style="opacity:1;color:#000000;fill:url(#linearGradient5424);fill-opacity:1;fill-rule:nonzero;stroke:#2e3436;stroke-width:0.98569316;stroke-linecap:butt;stroke-linejoin:miter;marker:none;marker-start:none;marker-mid:none;marker-end:none;stroke-miterlimit:4;stroke-dasharray:none;stroke-dashoffset:0;stroke-opacity:1;visibility:visible;display:inline;overflow:visible;enable-background:accumulate"
       id="path5384"
       sodipodi:cx="6.0625"
       sodipodi:cy="5.71875"
       sodipodi:rx="2.375"
       sodipodi:ry="1.03125"
       d="M 8.4375,5.71875 A 2.375,1.03125 0 1 1 3.6875,5.71875 A 2.375,1.03125 0 1 1 8.4375,5.71875 z"
       transform="matrix(0.8421052,0,0,1.2222222,0.3947373,-2.6666665)" />
    <path
       style="opacity:1;color:#000000;fill:#000000;fill-opacity:0.47499999;fill-rule:nonzero;stroke:none;stroke-width:1;stroke-linecap:butt;stroke-linejoin:miter;marker:none;marker-start:none;marker-mid:none;marker-end:none;stroke-miterlimit:4;stroke-dasharray:none;stroke-dashoffset:0;stroke-opacity:1;visibility:visible;display:inline;overflow:visible;enable-background:accumulate"
       d="M 10.125,17.5 L 10.125,7.5625 L 11.4375,17.4375 L 10.125,17.5 z"
       id="path5408" />
    <path
       style="opacity:1;color:#000000;fill:url(#radialGradient5434);fill-opacity:1;fill-rule:nonzero;stroke:none;stroke-width:1;stroke-linecap:butt;stroke-linejoin:miter;marker:none;marker-start:none;marker-mid:none;marker-end:none;stroke-miterlimit:4;stroke-dasharray:none;stroke-dashoffset:0;stroke-opacity:1;visibility:visible;display:inline;overflow:visible;enable-background:accumulate"
       d="M 1.0625,7.875 L 0.875,17.25 C 0.79193798,19.34657 9.3538957,20.570087 10.25,17.6875 C 9.1004765,19.274804 1.9687231,19.176859 1.8125,16.625 L 1.0625,7.875 z"
       id="path5426"
       sodipodi:nodetypes="ccccc" />
    <path
       style="opacity:1;color:#000000;fill:url(#linearGradient5489);fill-opacity:1;fill-rule:nonzero;stroke:url(#linearGradient5497);stroke-width:1;stroke-linecap:butt;stroke-linejoin:miter;marker:none;marker-start:none;marker-mid:none;marker-end:none;stroke-miterlimit:4;stroke-dasharray:none;stroke-dashoffset:0;stroke-opacity:1;visibility:visible;display:inline;overflow:visible;enable-background:accumulate"
       d="M 0.48613592,7.2391459 C 1.1965093,8.393189 2.935285,9.3156082 4.331029,9.4488546 L 4.2868348,19.701903 C 2.5616814,19.629827 0.58602495,18.835982 0.48613591,17.315418 L 0.48613592,7.2391459 z"
       id="path5478"
       sodipodi:nodetypes="ccccc" />
    <path
       style="font-size:3.94833159000000000px;font-style:normal;font-variant:normal;font-weight:bold;font-stretch:normal;line-height:100%;writing-mode:lr-tb;text-anchor:start;fill:#000000;fill-opacity:0.52499998;stroke:none;stroke-width:1pt;stroke-linecap:butt;stroke-linejoin:miter;stroke-opacity:1;font-family:Bitstream Vera Sans"
       d="M 8.0131122,10.662718 C 8.0131112,10.558769 7.9847182,10.488377 7.9279331,10.451541 C 7.8711463,10.414703 7.7898171,10.413984 7.6839456,10.449383 C 7.5780728,10.48478 7.4967437,10.539885 7.4399581,10.614695 C 7.3841342,10.689183 7.3562224,10.778401 7.3562227,10.882349 C 7.3562224,10.985332 7.3841342,11.054923 7.4399581,11.091121 C 7.4967437,11.126994 7.5780728,11.127232 7.6839456,11.091835 C 7.7907796,11.056113 7.8721087,11.00149 7.9279331,10.927966 C 7.9847182,10.854117 8.0131112,10.765701 8.0131122,10.662718 M 8.1964637,10.195731 C 8.235924,10.051639 8.29656,9.932712 8.3783716,9.838948 C 8.4601806,9.745184 8.5622028,9.677868 8.6844387,9.636998 C 8.8663448,9.576178 9.0049411,9.597692 9.1002281,9.701543 C 9.1955109,9.805393 9.2431538,9.988695 9.243156,10.251452 C 9.2431538,10.512281 9.1955109,10.726481 9.1002281,10.894049 C 9.0059035,11.061295 8.8673073,11.175488 8.6844387,11.236632 C 8.5622028,11.2775 8.4601806,11.277925 8.3783716,11.237906 C 8.29656,11.198847 8.235924,11.120468 8.1964637,11.002766 C 8.1560387,11.162577 8.0901092,11.294823 7.9986751,11.399507 C 7.9082015,11.504828 7.7936671,11.580659 7.6550713,11.627001 C 7.4414015,11.698439 7.2797057,11.681279 7.1699838,11.57552 C 7.061224,11.470398 7.0068443,11.27828 7.0068442,10.999164 C 7.0068443,10.719082 7.061224,10.489156 7.1699838,10.309384 C 7.2797057,10.130252 7.4414015,10.004965 7.6550713,9.933526 C 7.7936671,9.887185 7.9082015,9.885946 7.9986751,9.929807 C 8.0901092,9.974309 8.1560387,10.06295 8.1964637,10.195731 M 8.6281339,10.181335 C 8.5424721,10.209976 8.4765426,10.255599 8.4303452,10.318207 C 8.3841451,10.381778 8.3610457,10.457836 8.361047,10.546385 C 8.3610457,10.633007 8.3841451,10.692176 8.4303452,10.723891 C 8.4765426,10.755605 8.5424721,10.757142 8.6281339,10.728502 C 8.7137925,10.699861 8.7792408,10.654398 8.8244789,10.592113 C 8.8706759,10.529504 8.8937753,10.454889 8.8937772,10.368267 C 8.8937753,10.279719 8.8706759,10.219106 8.8244789,10.186429 C 8.7782783,10.154714 8.7128301,10.153016 8.6281339,10.181335 M 8.1286092,13.010558 C 8.398101,12.920452 8.5877084,12.831551 8.6974322,12.743856 C 8.8081151,12.656799 8.8634573,12.553597 8.8634591,12.434251 C 8.8634573,12.314903 8.8081151,12.248228 8.6974322,12.234225 C 8.5877084,12.219898 8.398101,12.257789 8.1286092,12.347894 C 7.8562279,12.438964 7.6642142,12.52867 7.5525677,12.61701 C 7.4409202,12.705351 7.3850967,12.809194 7.385097,12.928542 C 7.3850967,13.046925 7.4409202,13.112959 7.5525677,13.126642 C 7.6642142,13.140322 7.8562279,13.101628 8.1286092,13.010558 M 8.1242781,13.567836 C 7.767199,13.687224 7.4914501,13.702423 7.2970306,13.613433 C 7.1035729,13.524118 7.0068443,13.337977 7.0068442,13.055011 C 7.0068443,12.77108 7.1035729,12.519776 7.2970306,12.301097 C 7.4914501,12.082097 7.767199,11.912903 8.1242781,11.793513 C 8.4823175,11.673803 8.7580664,11.658604 8.9515256,11.747916 C 9.1459436,11.836908 9.2431538,12.023368 9.243156,12.307299 C 9.2431538,12.590266 9.1459436,12.84125 8.9515256,13.060251 C 8.7580664,13.278929 8.4823175,13.448124 8.1242781,13.567836 M 8.1286092,15.066406 C 8.398101,14.9763 8.5877084,14.887398 8.6974322,14.799703 C 8.8081151,14.712646 8.8634573,14.609445 8.8634591,14.490098 C 8.8634573,14.37075 8.8081151,14.304076 8.6974322,14.290073 C 8.5877084,14.275746 8.398101,14.313636 8.1286092,14.403741 C 7.8562279,14.494812 7.6642142,14.584518 7.5525677,14.672858 C 7.4409202,14.761198 7.3850967,14.865041 7.385097,14.984389 C 7.3850967,15.102772 7.4409202,15.168806 7.5525677,15.182489 C 7.6642142,15.19617 7.8562279,15.157476 8.1286092,15.066406 M 8.1242781,15.623684 C 7.767199,15.743071 7.4914501,15.75827 7.2970306,15.66928 C 7.1035729,15.579965 7.0068443,15.393824 7.0068442,15.110858 C 7.0068443,14.826927 7.1035729,14.575623 7.2970306,14.356945 C 7.4914501,14.137944 7.767199,13.96875 8.1242781,13.84936 C 8.4823175,13.72965 8.7580664,13.714451 8.9515256,13.803764 C 9.1459436,13.892755 9.2431538,14.079215 9.243156,14.363146 C 9.2431538,14.646113 9.1459436,14.897097 8.9515256,15.116098 C 8.7580664,15.334776 8.4823175,15.503971 8.1242781,15.623684"
       id="text2554" />
  </g>
</svg>
