<?xml version="1.0" encoding="UTF-8" standalone="no"?>
<!-- Created with Inkscape (http://www.inkscape.org/) -->
<svg
   xmlns:dc="http://purl.org/dc/elements/1.1/"
   xmlns:cc="http://web.resource.org/cc/"
   xmlns:rdf="http://www.w3.org/1999/02/22-rdf-syntax-ns#"
   xmlns:svg="http://www.w3.org/2000/svg"
   xmlns="http://www.w3.org/2000/svg"
   xmlns:xlink="http://www.w3.org/1999/xlink"
   xmlns:sodipodi="http://sodipodi.sourceforge.net/DTD/sodipodi-0.dtd"
   xmlns:inkscape="http://www.inkscape.org/namespaces/inkscape"
   width="16"
   height="16"
   id="svg4718"
   sodipodi:version="0.32"
   inkscape:version="0.45+devel"
   version="1.0"
   sodipodi:docname="film-roll-16.svg"
   inkscape:output_extension="org.inkscape.output.svg.inkscape">
  <defs
     id="defs4720">
    <linearGradient
       id="linearGradient5491">
      <stop
         style="stop-color:#c7c8c5;stop-opacity:1;"
         offset="0"
         id="stop5493" />
      <stop
         style="stop-color:#888a85;stop-opacity:1;"
         offset="1"
         id="stop5495" />
    </linearGradient>
    <linearGradient
       id="linearGradient5483">
      <stop
         style="stop-color:#eeeeec;stop-opacity:1;"
         offset="0"
         id="stop5485" />
      <stop
         style="stop-color:#ffffff;stop-opacity:1;"
         offset="1"
         id="stop5487" />
    </linearGradient>
    <linearGradient
       inkscape:collect="always"
       id="linearGradient5438">
      <stop
         style="stop-color:#ffffff;stop-opacity:1;"
         offset="0"
         id="stop5440" />
      <stop
         style="stop-color:#ffffff;stop-opacity:0;"
         offset="1"
         id="stop5442" />
    </linearGradient>
    <linearGradient
       inkscape:collect="always"
       id="linearGradient5428">
      <stop
         style="stop-color:#ffffff;stop-opacity:1;"
         offset="0"
         id="stop5430" />
      <stop
         style="stop-color:#ffffff;stop-opacity:0;"
         offset="1"
         id="stop5432" />
    </linearGradient>
    <linearGradient
       inkscape:collect="always"
       id="linearGradient5418">
      <stop
         style="stop-color:#888a85;stop-opacity:1;"
         offset="0"
         id="stop5420" />
      <stop
         style="stop-color:#888a85;stop-opacity:0;"
         offset="1"
         id="stop5422" />
    </linearGradient>
    <linearGradient
       id="linearGradient5400">
      <stop
         style="stop-color:#2e3436;stop-opacity:1;"
         offset="0"
         id="stop5402" />
      <stop
         style="stop-color:#c4cacd;stop-opacity:1;"
         offset="1"
         id="stop5404" />
    </linearGradient>
    <linearGradient
       id="linearGradient5388">
      <stop
         style="stop-color:#c4a000;stop-opacity:1;"
         offset="0"
         id="stop5390" />
      <stop
         id="stop5396"
         offset="0.26678815"
         style="stop-color:#edd400;stop-opacity:1" />
      <stop
         style="stop-color:#c4a000;stop-opacity:1"
         offset="0.71143502"
         id="stop5398" />
      <stop
         style="stop-color:#edd400;stop-opacity:1"
         offset="1"
         id="stop5392" />
    </linearGradient>
    <linearGradient
       inkscape:collect="always"
       xlink:href="#linearGradient5388"
       id="linearGradient5394"
       x1="-4e-08"
       y1="12.802091"
       x2="14.056097"
       y2="12.802091"
       gradientUnits="userSpaceOnUse"
       gradientTransform="matrix(0.7716984,0,0,0.8943303,0.1109856,-2.1512603)" />
    <linearGradient
       inkscape:collect="always"
       xlink:href="#linearGradient5418"
       id="linearGradient5424"
       x1="5.4200778"
       y1="5.71875"
       x2="8.5563307"
       y2="5.71875"
       gradientUnits="userSpaceOnUse" />
    <radialGradient
       inkscape:collect="always"
       xlink:href="#linearGradient5428"
       id="radialGradient5434"
       cx="1.7496996"
       cy="16.990303"
       fx="1.7496996"
       fy="16.990303"
       r="4.6878004"
       gradientTransform="matrix(1.8959553,0,0,2.6488917,-1.8561262,-31.437347)"
       gradientUnits="userSpaceOnUse" />
    <radialGradient
       inkscape:collect="always"
       xlink:href="#linearGradient5438"
       id="radialGradient5444"
       cx="5.8025656"
       cy="8.1790981"
       fx="5.8025656"
       fy="8.1790981"
       r="6.0894713"
       gradientTransform="matrix(1.7203487,0,0,0.9432878,-6.7170225,-2.5355113)"
       gradientUnits="userSpaceOnUse" />
    <linearGradient
       inkscape:collect="always"
       xlink:href="#linearGradient5483"
       id="linearGradient5489"
       x1="-0.01386409"
       y1="13.470524"
       x2="4.8310289"
       y2="13.470524"
       gradientUnits="userSpaceOnUse"
       gradientTransform="matrix(0.7716984,0,0,0.8943303,0.1109856,-2.1512603)" />
    <linearGradient
       inkscape:collect="always"
       xlink:href="#linearGradient5491"
       id="linearGradient5497"
       x1="-0.01386409"
       y1="13.470524"
       x2="4.8310289"
       y2="13.470524"
       gradientUnits="userSpaceOnUse"
       gradientTransform="matrix(0.7716984,0,0,0.8943303,0.1109856,-2.1512603)" />
  </defs>
  <sodipodi:namedview
     id="base"
     pagecolor="#ffffff"
     bordercolor="#e5e5e5"
     borderopacity="1"
     gridtolerance="10000"
     guidetolerance="10"
     objecttolerance="10"
     inkscape:pageopacity="0.0"
     inkscape:pageshadow="2"
     inkscape:zoom="1"
     inkscape:cx="28.603211"
     inkscape:cy="15.317707"
     inkscape:document-units="px"
     inkscape:current-layer="layer1"
     width="16px"
     height="16px"
     borderlayer="true"
     inkscape:showpageshadow="false"
     inkscape:window-width="641"
     inkscape:window-height="626"
     inkscape:window-x="684"
     inkscape:window-y="149">
    <inkscape:grid
       type="xygrid"
       id="grid4728" />
  </sodipodi:namedview>
  <metadata
     id="metadata4723">
    <rdf:RDF>
      <cc:Work
         rdf:about="">
        <dc:format>image/svg+xml</dc:format>
        <dc:type
           rdf:resource="http://purl.org/dc/dcmitype/StillImage" />
      </cc:Work>
    </rdf:RDF>
  </metadata>
  <g
     inkscape:label="Layer 1"
     inkscape:groupmode="layer"
     id="layer1">
    <path
       style="opacity:0.80120479;color:#000000;fill:#555753;fill-opacity:1;fill-rule:nonzero;stroke:#000000;stroke-width:0.99999994;stroke-linecap:butt;stroke-linejoin:miter;marker:none;marker-start:none;marker-mid:none;marker-end:none;stroke-miterlimit:4;stroke-dasharray:none;stroke-dashoffset:0;stroke-opacity:1;visibility:visible;display:inline;overflow:visible;enable-background:accumulate"
       d="M 15.583494,1.5 L 15.538688,5.2941869 C 15.538688,5.2941869 14.608953,5.3847444 13.47759,7.1145831 C 12.346226,8.8444217 12.626266,12.5 12.626266,12.5 L 2.4999999,12.5 L 2.4999999,1.5591399 L 15.583494,1.5 z"
       id="path4726"
       sodipodi:nodetypes="ccscccc" />
    <path
       style="opacity:1;color:#000000;fill:url(#linearGradient5394);fill-opacity:1;fill-rule:nonzero;stroke:#6f5c00;stroke-width:0.99999994;stroke-linecap:butt;stroke-linejoin:miter;marker:none;marker-start:none;marker-mid:none;marker-end:none;stroke-miterlimit:4;stroke-dasharray:none;stroke-dashoffset:0;stroke-opacity:1;visibility:visible;display:inline;overflow:visible;enable-background:accumulate"
       d="M 0.49683474,3.0470346 L 0.49683474,13.443624 C 1.2312894,16.06793 7.3271659,16.22124 8.1780563,14.002581 L 10.528913,13.49952 L 10.572203,3.4941998 L 8.0284225,3.773678 C 7.0434801,6.1898656 0.72139424,5.5689919 0.49683474,3.0470346 z"
       id="path5379"
       sodipodi:nodetypes="ccccccc" />
    <path
       style="opacity:1;color:#000000;fill:#555753;fill-opacity:1;fill-rule:nonzero;stroke:#2e3436;stroke-width:0.99999994;stroke-linecap:butt;stroke-linejoin:miter;marker:none;marker-start:none;marker-mid:none;marker-end:none;stroke-miterlimit:4;stroke-dasharray:none;stroke-dashoffset:0;stroke-opacity:1;visibility:visible;display:inline;overflow:visible;enable-background:accumulate"
       d="M 4.379938,0.4999999 C 2.236465,0.4999999 0.49683477,1.6089225 0.49683477,2.9752736 C 0.49683477,4.3416247 2.236465,5.4505473 4.379938,5.4505473 C 6.074106,5.4505473 7.2036446,4.9994641 7.7336877,4.034392 L 10.531821,3.6270686 L 10.557047,0.59631852 L 5.2089151,0.56266497 L 5.1652847,0.56266497 C 4.9125797,0.52967423 4.6478721,0.4999999 4.379938,0.4999999 z"
       id="path5354"
       sodipodi:nodetypes="csscccccc" />
    <path
       sodipodi:nodetypes="csscccccc"
       id="path5436"
       d="M 4.4120084,1.4999999 C 2.6464622,1.4999999 1.213555,2.4012041 1.213555,3.5116163 C 1.213555,4.6220285 2.6464622,5.5232328 4.4120084,5.5232328 C 5.807469,5.5232328 7.2855757,4.9579664 7.7221642,4.1736672 L 9.4792209,3.8426418 L 9.5,1.5782766 L 5.0948244,1.5509269 L 5.0588867,1.5509269 C 4.8507373,1.5241158 4.6327017,1.4999999 4.4120084,1.4999999 z"
       style="opacity:1;color:#000000;fill:none;fill-opacity:1;fill-rule:nonzero;stroke:url(#radialGradient5444);stroke-width:0.99999994;stroke-linecap:butt;stroke-linejoin:miter;marker:none;marker-start:none;marker-mid:none;marker-end:none;stroke-miterlimit:4;stroke-dasharray:none;stroke-dashoffset:0;stroke-opacity:1;visibility:visible;display:inline;overflow:visible;enable-background:accumulate" />
    <path
       transform="matrix(0.7764357,0,0,1.0930704,-5.1176093e-2,-3.7605325)"
       d="M 8.4375,5.71875 A 2.375,1.03125 0 1 1 3.6875,5.71875 A 2.375,1.03125 0 1 1 8.4375,5.71875 z"
       sodipodi:ry="1.03125"
       sodipodi:rx="2.375"
       sodipodi:cy="5.71875"
       sodipodi:cx="6.0625"
       id="path5386"
       style="opacity:1;color:#000000;fill:#888a85;fill-opacity:1;fill-rule:nonzero;stroke:#2e3436;stroke-width:1.08548355;stroke-linecap:butt;stroke-linejoin:miter;marker:none;marker-start:none;marker-mid:none;marker-end:none;stroke-miterlimit:4;stroke-dasharray:none;stroke-dashoffset:0;stroke-opacity:1;visibility:visible;display:inline;overflow:visible;enable-background:accumulate"
       sodipodi:type="arc" />
    <path
       sodipodi:type="arc"
       style="opacity:1;color:#000000;fill:url(#linearGradient5424);fill-opacity:1;fill-rule:nonzero;stroke:#718085;stroke-width:1.08548354999999996;stroke-linecap:butt;stroke-linejoin:miter;marker:none;marker-start:none;marker-mid:none;marker-end:none;stroke-miterlimit:4;stroke-dasharray:none;stroke-dashoffset:0;stroke-opacity:1;visibility:visible;display:inline;overflow:visible;enable-background:accumulate"
       id="path5384"
       sodipodi:cx="6.0625"
       sodipodi:cy="5.71875"
       sodipodi:rx="2.375"
       sodipodi:ry="1.03125"
       d="M 8.4375,5.71875 A 2.375,1.03125 0 1 1 3.6875,5.71875 A 2.375,1.03125 0 1 1 8.4375,5.71875 z"
       transform="matrix(0.7764357,0,0,1.0930704,-5.1176093e-2,-4.5803353)" />
    <path
       style="opacity:1;color:#000000;fill:#000000;fill-opacity:0.24375001;fill-rule:nonzero;stroke:none;stroke-width:1;stroke-linecap:butt;stroke-linejoin:miter;marker:none;marker-start:none;marker-mid:none;marker-end:none;stroke-miterlimit:4;stroke-dasharray:none;stroke-dashoffset:0;stroke-opacity:1;visibility:visible;display:inline;overflow:visible;enable-background:accumulate"
       d="M 7.9244321,13.49952 L 7.9244321,4.6121128 L 8.9372863,13.443625 L 7.9244321,13.49952 z"
       id="path5408" />
    <path
       style="opacity:1;color:#000000;fill:url(#radialGradient5434);fill-opacity:1;fill-rule:nonzero;stroke:none;stroke-width:1;stroke-linecap:butt;stroke-linejoin:miter;marker:none;marker-start:none;marker-mid:none;marker-end:none;stroke-miterlimit:4;stroke-dasharray:none;stroke-dashoffset:0;stroke-opacity:1;visibility:visible;display:inline;overflow:visible;enable-background:accumulate"
       d="M 0.93091517,4.8915911 L 0.78622172,13.124165 C 0.72212289,14.965249 7.3293721,16.039669 8.0208944,13.508351 C 7.1338089,14.902228 1.6302461,14.816219 1.5096889,12.575326 L 0.93091517,4.8915911 z"
       id="path5426"
       sodipodi:nodetypes="ccccc" />
    <path
       style="opacity:1;color:#000000;fill:url(#linearGradient5489);fill-opacity:1;fill-rule:nonzero;stroke:url(#linearGradient5497);stroke-width:0.99999994;stroke-linecap:butt;stroke-linejoin:miter;marker:none;marker-start:none;marker-mid:none;marker-end:none;stroke-miterlimit:4;stroke-dasharray:none;stroke-dashoffset:0;stroke-opacity:1;visibility:visible;display:inline;overflow:visible;enable-background:accumulate"
       d="M 0.48613589,4.3229273 C 1.0343298,5.355023 2.3761402,6.1799704 3.4532336,6.2991367 L 3.4191289,15.468748 C 2.087831,15.404289 0.56322009,14.694329 0.48613588,13.334442 L 0.48613589,4.3229273 z"
       id="path5478"
       sodipodi:nodetypes="ccccc" />
    <path
       style="font-size:3.94833159px;font-style:normal;font-variant:normal;font-weight:bold;font-stretch:normal;line-height:100%;writing-mode:lr-tb;text-anchor:start;fill:#000000;fill-opacity:0.525;stroke:none;stroke-width:1pt;stroke-linecap:butt;stroke-linejoin:miter;stroke-opacity:1;font-family:Bitstream Vera Sans"
       d="M 6.2946916,7.3847318 C 6.2946908,7.2917671 6.27278,7.2288134 6.228959,7.1958698 C 6.1851367,7.1629245 6.1223751,7.1622815 6.0406743,7.1939399 C 5.9589724,7.2255965 5.8962109,7.2748786 5.8523895,7.3417834 C 5.8093102,7.4084003 5.7877708,7.4881907 5.787771,7.5811545 C 5.7877708,7.6732553 5.8093102,7.7354927 5.8523895,7.7678656 C 5.8962109,7.7999479 5.9589724,7.8001608 6.0406743,7.7685042 C 6.1231179,7.7365569 6.1858795,7.6877059 6.228959,7.6219512 C 6.27278,7.5559058 6.2946908,7.4768327 6.2946916,7.3847318 M 6.4361837,6.9670912 C 6.4666351,6.8382253 6.5134278,6.7318653 6.5765618,6.6480093 C 6.6396936,6.5641533 6.718424,6.5039506 6.8127532,6.4673993 C 6.9531298,6.4130061 7.0600844,6.4322468 7.1336172,6.5251239 C 7.2071468,6.6180001 7.2439127,6.7819326 7.2439145,7.0169242 C 7.2439127,7.2501915 7.2071468,7.441757 7.1336172,7.5916182 C 7.0608271,7.7411913 6.9538726,7.8433176 6.8127532,7.8980005 C 6.718424,7.93455 6.6396936,7.9349301 6.5765618,7.8991399 C 6.5134278,7.8642083 6.4666351,7.7941115 6.4361837,7.6888471 C 6.4049878,7.8317709 6.3541101,7.9500425 6.2835505,8.0436646 C 6.2137322,8.1378564 6.1253461,8.2056743 6.018392,8.2471194 C 5.8535034,8.3110085 5.7287229,8.2956618 5.6440508,8.2010784 C 5.560121,8.1070646 5.5181563,7.9352476 5.5181562,7.6856257 C 5.5181563,7.4351399 5.560121,7.2295101 5.6440508,7.0687345 C 5.7287229,6.9085313 5.8535034,6.7964834 6.018392,6.7325933 C 6.1253461,6.6911491 6.2137322,6.6900411 6.2835505,6.7292673 C 6.3541101,6.7690668 6.4049878,6.8483411 6.4361837,6.9670912 M 6.7693029,6.9542164 C 6.7031978,6.9798309 6.6523201,7.020633 6.6166697,7.0766252 C 6.5810172,7.1334787 6.5631914,7.2014996 6.5631924,7.2806917 C 6.5631914,7.3581604 6.5810172,7.411077 6.6166697,7.4394407 C 6.6523201,7.4678035 6.7031978,7.4691781 6.7693029,7.4435645 C 6.8354055,7.4179499 6.8859118,7.377291 6.920822,7.3215876 C 6.9564722,7.2655945 6.9742979,7.1988641 6.9742994,7.1213954 C 6.9742979,7.0422042 6.9564722,6.9879962 6.920822,6.9587721 C 6.8851691,6.9304084 6.8346628,6.9288899 6.7693029,6.9542164 M 6.3838204,9.4844761 C 6.5917869,9.4038916 6.7381066,9.3243847 6.8227803,9.2459564 C 6.9081941,9.1680987 6.9509016,9.075802 6.950903,8.9690675 C 6.9509016,8.862331 6.9081941,8.8027015 6.8227803,8.7901782 C 6.7381066,8.7773651 6.5917869,8.8112522 6.3838204,8.8918359 C 6.1736243,8.9732825 6.0254476,9.053509 5.9392901,9.1325142 C 5.853132,9.2115202 5.810053,9.3043902 5.8100533,9.4111267 C 5.810053,9.5170002 5.853132,9.5760564 5.9392901,9.5882935 C 6.0254476,9.600528 6.1736243,9.5659228 6.3838204,9.4844761 M 6.3804782,9.9828667 C 6.1049207,10.089639 5.8921258,10.103232 5.7420925,10.023646 C 5.5928016,9.9437684 5.5181563,9.7772969 5.5181562,9.5242318 C 5.5181563,9.2703037 5.5928016,9.0455549 5.7420925,8.8499839 C 5.8921258,8.6541255 6.1049207,8.5028102 6.3804782,8.3960361 C 6.6567766,8.2889758 6.8695716,8.2753829 7.0188638,8.3552573 C 7.1688958,8.4348456 7.2439127,8.6016024 7.2439145,8.8555305 C 7.2439127,9.1085962 7.1688958,9.3330588 7.0188638,9.5289181 C 6.8695716,9.7244884 6.6567766,9.8758047 6.3804782,9.9828667 M 6.3838204,11.323083 C 6.5917869,11.242499 6.7381066,11.162991 6.8227803,11.084563 C 6.9081941,11.006705 6.9509016,10.914409 6.950903,10.807674 C 6.9509016,10.700937 6.9081941,10.641308 6.8227803,10.628785 C 6.7381066,10.615972 6.5917869,10.649858 6.3838204,10.730442 C 6.1736243,10.811889 6.0254476,10.892116 5.9392901,10.971121 C 5.853132,11.050127 5.810053,11.142997 5.8100533,11.249733 C 5.810053,11.355607 5.853132,11.414663 5.9392901,11.4269 C 6.0254476,11.439135 6.1736243,11.40453 6.3838204,11.323083 M 6.3804782,11.821474 C 6.1049207,11.928245 5.8921258,11.941838 5.7420925,11.862252 C 5.5928016,11.782375 5.5181563,11.615903 5.5181562,11.362838 C 5.5181563,11.10891 5.5928016,10.884161 5.7420925,10.688591 C 5.8921258,10.492732 6.1049207,10.341416 6.3804782,10.234642 C 6.6567766,10.127582 6.8695716,10.113989 7.0188638,10.193864 C 7.1688958,10.273452 7.2439127,10.440208 7.2439145,10.694137 C 7.2439127,10.947203 7.1688958,11.171665 7.0188638,11.367524 C 6.8695716,11.563095 6.6567766,11.714411 6.3804782,11.821474"
       id="text2554" />
    <rect
       style="opacity:1;color:#000000;fill:#000000;fill-opacity:1;fill-rule:nonzero;stroke:none;stroke-width:1;stroke-linecap:butt;stroke-linejoin:miter;marker:none;marker-start:none;marker-mid:none;marker-end:none;stroke-miterlimit:4;stroke-dasharray:none;stroke-dashoffset:0;stroke-opacity:1;visibility:visible;display:inline;overflow:visible;enable-background:accumulate"
       id="rect5509"
       width="1"
       height="1"
       x="13"
       y="3" />
    <rect
       y="3"
       x="11"
       height="1"
       width="1"
       id="rect5511"
       style="opacity:1;color:#000000;fill:#000000;fill-opacity:1;fill-rule:nonzero;stroke:none;stroke-width:1;stroke-linecap:butt;stroke-linejoin:miter;marker:none;marker-start:none;marker-mid:none;marker-end:none;stroke-miterlimit:4;stroke-dasharray:none;stroke-dashoffset:0;stroke-opacity:1;visibility:visible;display:inline;overflow:visible;enable-background:accumulate" />
  </g>
</svg>
